<svg xmlns="http://www.w3.org/2000/svg" viewBox="0 0 432.071 445.383">
  <path fill="#336791" d="M323.454 324.227s15.93-3.557 31.79-13.91c11.196-7.3 22.251-21.206 22.251-21.206s-71.86-2.297-71.86-33.845c0-31.559 90.707-44.814 90.707-129.666 0-84.848-58.977-113.676-127.855-113.676-68.908 0-98.478 34.555-98.478 34.555l-.054 49.797s47.697-53.22 116.266-12.348c68.537 40.855 32.016 86.487 32.016 86.487s-81.043 53.288-81.043 90.38c0 37.08 86.26 63.432 86.26 63.432z"/>
  <path fill="#336791" d="M235.957 445.383c-29.912 0-53.476-5.328-69.48-12.548l-2.624-1.252.547-2.892c1.237-6.564 2.896-12.492 4.918-17.592 6.235-15.768 16.086-25.432 19.665-28.456 15.427 6.992 33.086 10.644 50.974 10.644 32.146 0 49.197-11.468 49.197-33.152 0-23.204-18.175-30.372-48.776-36.092-39.075-7.276-97.036-17.888-97.036-81.58 0-44.036 34.083-92.964 115.641-92.964 28.072 0 52.844 4.944 71.673 10.248l2.444.688-.264 2.524c-1.584 15.644-5.988 35.508-12.724 47.38-13.815-4.884-36.172-9.992-63.017-9.992-36.753 0-46.376 15.316-46.376 27.084 0 17.816 19.367 24.228 51.484 30.432 41.584 8.024 96.324 18.524 96.324 85.644 0 51.156-44.016 101.876-122.57 101.876z"/>
  <path fill="#336791" d="M167.923 409.941c-40.098-11.676-68.416-34.892-84.168-69.02-22.436-48.596-27.716-113.996-14.952-185.304C87.981 51.664 178.545 4.504 228.261.213c39.284-3.396 72.585 9.04 90.505 33.876 15.86 21.996 19.565 49.62 11.648 87.064-2.092 9.904-10.097 20.156-18.708 23.904-9.087 3.96-20.053 2.208-24 1.292-4.764-1.112-13.793-3.724-18.587-11.236-4.112-6.436-4.014-15.62-3.14-26.7.504-6.524 4.005-15.032 3.577-21.732-.091-2.9-.77-5.528-2.097-7.516-6.266-9.34-26.145-13.508-42.853-12.204-34.34 2.676-66.255 31.592-81.566 73.78-8.483 23.376-12.137 48.4-10.464 71.34 1.906 25.816 9.34 44.636 22.081 55.916 10.024 8.864 22.572 12.144 36.172 9.32 31.052-6.52 50.384-36.272 60.256-51.328 1.176-1.812 3.196-2.892 5.38-2.892h52.833l1.588.688c4.782 2.068 8.334 5.94 9.604 10.596 1.483 5.392-.38 10.772-2.064 15.044-17.796 45.132-58.923 115.904-139.03 115.904-11.276 0-22.995-1.276-34.783-3.796"/>
</svg>