<svg xmlns="http://www.w3.org/2000/svg" viewBox="0 0 256 256">
  <path fill="currentColor" d="M181.4074667,88.5927333 C173.751467,85.0460667 166.614933,80.78 160.010667,75.91 L135.331333,57.766 C120.462667,47.098 113.028667,43.764 102.862,43.764 C92.6953333,43.764 85.2613333,47.098 70.3926667,57.766 L45.7133333,75.91 C39.1090667,80.78 31.9725333,85.0460667 24.3165333,88.5927333 C22.8109333,89.3247333 22,90.9197333 22,92.6483333 L22,171.852333 C22,173.581333 22.8109333,175.176333 24.3165333,175.907933 C31.9725333,179.454 39.1090667,183.720667 45.7133333,188.590667 L70.3926667,206.734667 C85.2613333,217.402667 92.6953333,220.736667 102.862,220.736667 C113.028667,220.736667 120.462667,217.402667 135.331333,206.734667 L160.010667,188.590667 C166.614933,183.720667 173.751467,179.454 181.4074667,175.907933 C182.913067,175.176333 183.724,173.581333 183.724,171.852333 L183.724,92.6483333 C183.724,90.9197333 182.913067,89.3247333 181.4074667,88.5927333 Z M170.057333,165.619667 C163.906667,168.544333 158.1694,171.9814 152.944667,175.8654 L128.265333,194.009 C115.936667,202.6544 110.399333,205.0704 102.862,205.0704 C95.3246667,205.0704 89.7873333,202.6544 77.4586667,194.009 L52.7793333,175.8654 C47.5546,171.9814 41.8173333,168.544333 35.6666667,165.619667 L35.6666667,98.881 C41.8173333,95.9563333 47.5546,92.5192667 52.7793333,88.6352667 L77.4586667,70.4916667 C89.7873333,61.8462667 95.3246667,59.4302667 102.862,59.4302667 C110.399333,59.4302667 115.936667,61.8462667 128.265333,70.4916667 L152.944667,88.6352667 C158.1694,92.5192667 163.906667,95.9563333 170.057333,98.881 L170.057333,165.619667 Z" />
</svg>